<?xml version="1.0" standalone="no"?>
<!DOCTYPE svg PUBLIC "-//W3C//DTD SVG 20010904//EN"
 "http://www.w3.org/TR/2001/REC-SVG-20010904/DTD/svg10.dtd">
<svg version="1.0" xmlns="http://www.w3.org/2000/svg"
 width="1280.000000pt" height="1280.000000pt" viewBox="0 0 1280.000000 1280.000000"
 preserveAspectRatio="xMidYMid meet">
<metadata>
Created by potrace 1.14, written by Peter Selinger 2001-2017
</metadata>
<g transform="translate(0.000000,1280.000000) scale(0.100000,-0.100000)"
fill="#000000" stroke="none">
<path d="M0 6400 c0 -6393 0 -6400 20 -6400 20 0 20 7 20 5028 0 2765 3 5645
7 6400 l6 1372 -26 0 -27 0 0 -6400z"/>
<path d="M6470 11890 c-52 -9 -140 -25 -195 -34 -55 -9 -120 -24 -145 -32 -25
-8 -72 -21 -105 -29 -178 -45 -328 -87 -390 -110 -38 -15 -90 -32 -115 -40
-177 -54 -358 -144 -476 -235 -49 -38 -128 -96 -175 -129 -93 -65 -196 -169
-290 -293 -33 -42 -98 -121 -145 -175 -115 -132 -159 -225 -213 -456 -13 -53
-19 -103 -15 -125 3 -20 1 -48 -5 -62 l-10 -25 -1 25 -1 25 -12 -25 c-6 -15
-13 -119 -16 -257 -4 -166 -10 -236 -18 -245 -15 -14 -14 -22 -14 117 0 109
-2 107 -38 -55 -37 -163 -42 -271 -35 -665 7 -386 -2 -789 -17 -779 -5 3 -9
80 -10 172 0 92 -4 187 -8 212 l-7 45 -8 -68 c-4 -37 -4 -147 -1 -245 8 -191
2 -236 -37 -290 -91 -124 -107 -140 -157 -157 -54 -18 -105 -67 -118 -113 -13
-46 -8 -184 9 -237 15 -46 38 -125 53 -183 4 -12 10 -20 15 -17 8 5 40 -116
40 -154 0 -12 7 -21 15 -21 20 0 31 -25 65 -143 37 -126 59 -183 126 -317 85
-169 127 -225 284 -380 128 -127 163 -155 261 -212 155 -89 170 -97 266 -124
190 -55 367 -66 573 -35 177 27 257 52 407 127 95 48 137 64 145 56 7 -5 29
-13 48 -17 54 -11 108 -45 130 -82 18 -31 19 -37 5 -70 -16 -38 -19 -142 -6
-208 l8 -40 19 40 19 40 3 -45 c7 -96 -31 -150 -155 -216 -32 -18 -107 -59
-168 -93 -124 -69 -170 -88 -304 -125 l-93 -25 18 27 c34 53 116 152 132 161
9 5 14 12 11 15 -10 11 -169 -51 -233 -90 -142 -87 -175 -133 -196 -276 -14
-98 -6 -139 38 -191 19 -23 40 -53 46 -67 17 -39 61 -103 82 -120 11 -9 37
-24 59 -34 122 -57 179 -96 162 -113 -4 -4 23 -24 60 -45 65 -36 72 -38 159
-38 115 0 186 9 181 24 -2 7 25 16 71 23 41 6 81 18 89 26 12 11 21 12 43 4
20 -8 96 -6 276 8 137 10 346 21 464 25 153 5 244 14 315 28 55 11 123 24 150
28 28 4 60 10 72 15 11 4 59 13 105 19 173 22 303 52 389 91 47 21 112 45 145
54 52 13 331 37 456 39 87 2 130 -55 154 -204 8 -47 14 -88 14 -92 0 -5 4 -8
8 -8 4 0 13 19 20 43 7 23 20 65 28 92 38 128 36 255 -5 400 -11 39 -21 88
-21 110 0 44 -23 139 -38 158 -5 7 -15 28 -21 48 -6 19 -31 54 -54 77 -55 54
-113 64 -212 37 -71 -19 -93 -35 -48 -35 31 0 128 -42 157 -68 42 -39 58 -95
92 -333 3 -21 1 -40 -4 -43 -6 -3 -29 1 -53 10 -46 16 -231 21 -286 8 -15 -4
-87 -42 -159 -85 -202 -121 -209 -124 -344 -123 -92 0 -124 5 -160 20 -25 11
-64 26 -87 33 -23 8 -40 17 -38 22 3 4 33 10 67 14 94 10 135 22 223 65 57 28
103 43 160 51 113 15 117 18 60 41 -41 17 -61 19 -115 13 -159 -19 -192 -10
-276 73 -28 28 -64 54 -80 57 -124 27 -254 72 -347 120 -117 59 -117 55 4 74
129 21 286 8 360 -29 21 -11 52 -40 69 -65 51 -74 141 -129 261 -159 114 -28
166 -21 227 31 l34 28 -56 41 c-30 23 -72 45 -93 48 -192 33 -260 58 -335 121
-35 29 -134 67 -208 79 -47 8 -226 24 -382 36 -87 6 -141 15 -170 28 -86 39
-180 73 -189 70 -12 -4 193 -214 234 -241 39 -26 48 -55 59 -182 11 -128 12
-165 3 -220 -11 -74 -15 -84 -35 -95 -18 -10 -19 -8 -14 22 6 33 6 33 -10 10
-49 -65 -23 -82 132 -82 113 -1 118 -9 19 -30 -31 -7 -55 -15 -53 -17 2 -2 33
-11 67 -19 51 -12 99 -14 231 -8 130 5 171 4 183 -6 14 -12 14 -15 -1 -31 -9
-10 -28 -20 -43 -23 -173 -33 -264 -48 -356 -56 -60 -5 -147 -14 -193 -19 -51
-6 -116 -6 -170 -1 -48 6 -121 10 -162 10 l-75 0 42 19 c30 14 48 31 63 61 32
62 25 80 -45 115 l-60 30 -6 75 c-7 86 -19 135 -55 216 -22 51 -24 63 -15 94
6 20 23 49 39 64 25 26 110 66 138 66 7 0 14 -42 18 -116 4 -64 14 -140 22
-170 8 -30 14 -64 14 -74 0 -40 16 -18 35 48 22 77 26 276 5 327 -10 27 -9 32
9 44 12 7 21 20 21 28 0 8 -31 54 -68 101 -95 122 -106 138 -155 238 -75 149
-95 241 -66 295 10 19 22 75 52 249 69 392 72 512 18 779 l-18 94 23 156 c14
98 33 178 48 216 l25 60 -26 3 c-14 2 -51 -8 -83 -22 -32 -15 -75 -26 -96 -25
l-39 1 30 13 c17 8 42 14 56 15 14 0 53 11 87 25 103 42 381 58 532 31 68 -12
182 -58 221 -89 22 -17 49 -61 82 -131 l28 -61 -5 57 c-7 68 8 86 24 27 22
-80 -12 -197 -51 -174 -6 4 -24 36 -40 71 -16 35 -31 64 -34 64 -2 0 -3 -19
-3 -42 1 -24 -4 -67 -10 -97 -22 -99 -14 -244 22 -396 67 -281 131 -412 266
-546 98 -97 221 -175 360 -228 47 -18 99 -41 115 -51 35 -22 235 -90 263 -90
10 0 45 -10 78 -22 51 -18 81 -21 224 -22 159 0 209 6 179 25 -16 10 9 15 104
24 116 10 303 99 457 217 84 64 267 327 333 478 34 76 80 212 122 360 20 69
47 148 60 177 47 103 147 209 222 234 52 17 164 7 199 -19 32 -22 160 -241
242 -412 28 -58 63 -148 78 -200 24 -86 27 -109 27 -275 1 -149 -3 -200 -22
-295 -39 -200 -60 -286 -83 -341 -21 -51 -151 -286 -188 -339 -9 -14 -70 -126
-134 -250 -121 -235 -150 -288 -234 -433 -29 -49 -73 -127 -98 -174 -25 -47
-77 -127 -114 -177 -41 -55 -97 -151 -142 -241 -87 -177 -122 -233 -240 -380
-103 -130 -180 -192 -325 -263 -169 -83 -267 -157 -483 -367 -80 -77 -190
-173 -245 -214 -55 -41 -149 -124 -210 -184 -126 -126 -148 -143 -230 -187
-33 -18 -83 -47 -112 -66 -28 -19 -73 -44 -100 -55 -77 -34 -163 -68 -163 -64
0 4 208 117 225 123 6 2 24 10 41 18 60 26 144 143 130 179 -6 16 -17 17 -126
11 -102 -6 -133 -3 -212 15 -143 32 -213 57 -333 117 -60 30 -139 63 -174 73
-72 21 -157 71 -129 77 14 3 10 15 -24 85 -31 62 -57 98 -111 150 -76 73 -108
88 -83 39 8 -16 26 -55 40 -87 l26 -58 -32 25 c-48 37 -78 101 -78 164 0 91
53 134 204 164 74 15 120 55 202 177 32 48 77 108 99 132 22 24 45 60 51 80
l12 36 1 -32 c1 -30 2 -32 35 -26 40 6 50 -6 35 -44 -62 -158 -111 -305 -103
-312 2 -3 27 17 55 45 45 43 109 149 109 179 0 14 59 154 96 228 15 31 35 58
44 58 35 3 -50 17 -110 18 -47 1 -73 -4 -95 -17 -17 -11 -54 -27 -84 -37 -55
-18 -65 -18 -274 1 -40 4 -92 1 -125 -6 -31 -6 -129 -13 -217 -14 -88 -2 -181
-8 -206 -15 -52 -14 -77 -6 -134 43 -16 14 -41 26 -55 27 -14 0 -111 1 -216 1
-176 0 -197 -2 -275 -26 -109 -33 -163 -33 -242 1 -54 23 -80 27 -203 32
l-141 6 -59 42 c-33 22 -110 66 -171 96 -193 95 -246 143 -342 306 -88 149
-155 218 -226 235 -54 13 -94 46 -140 114 -95 142 -166 238 -198 268 -18 17
-75 47 -130 68 -113 44 -85 12 -302 336 -134 199 -158 230 -223 282 -78 62
-102 73 -77 35 8 -13 24 -49 34 -80 l20 -58 -29 21 c-40 28 -70 96 -70 156 0
47 -3 52 -42 82 -38 29 -43 30 -58 17 -10 -9 -24 -13 -32 -10 -13 5 -18 -10
-28 -82 -12 -86 -9 -136 16 -248 7 -28 6 -29 -11 -15 -17 14 -17 13 -10 -9 6
-19 4 -23 -8 -18 -13 5 -18 -3 -23 -31 -9 -57 -15 -73 -23 -68 -11 7 14 -87
41 -154 27 -68 141 -291 177 -345 18 -28 57 -57 131 -102 159 -95 249 -133
318 -133 26 0 44 -12 100 -67 117 -116 303 -233 372 -233 23 0 47 -8 61 -20
l24 -19 -66 -1 c-61 0 -75 5 -176 55 -75 38 -132 76 -180 119 -39 34 -87 76
-108 91 l-37 29 -19 -23 c-11 -13 -19 -28 -19 -35 0 -22 195 -212 250 -243 79
-44 122 -82 115 -102 -3 -11 18 -36 71 -81 96 -82 102 -88 119 -114 13 -19 38
-34 139 -82 21 -11 64 -42 96 -70 32 -28 66 -57 77 -65 10 -8 29 -28 41 -46
12 -18 44 -42 70 -54 26 -12 62 -29 81 -38 18 -9 59 -39 91 -67 32 -28 66 -57
77 -65 10 -8 28 -27 40 -44 20 -28 37 -39 146 -91 21 -11 62 -39 90 -64 29
-25 74 -63 100 -84 26 -21 81 -82 122 -136 92 -122 171 -208 226 -245 22 -16
45 -39 49 -51 5 -11 42 -72 83 -135 80 -120 196 -244 297 -314 30 -21 60 -43
65 -49 6 -6 45 -42 88 -79 87 -75 100 -78 194 -51 75 22 121 15 236 -35 60
-27 121 -46 163 -51 36 -5 188 -5 338 -1 210 7 284 12 331 26 227 66 488 180
614 270 112 78 452 385 549 495 212 240 417 437 549 524 79 53 143 110 295
264 209 211 217 222 298 382 29 58 86 161 125 230 40 69 98 175 128 235 31 61
71 133 89 162 140 219 195 318 229 408 11 30 65 145 121 256 94 191 120 250
152 359 8 25 19 59 25 75 18 51 58 196 77 285 16 70 19 127 19 320 0 228 -1
238 -29 337 -18 67 -60 168 -122 293 -80 163 -102 201 -154 255 -77 79 -136
107 -230 107 -115 0 -174 -40 -265 -179 -26 -41 -55 -60 -74 -49 -10 7 -54
144 -105 331 -43 154 -37 175 27 104 43 -47 117 -177 117 -206 0 -28 13 -5 17
29 4 42 -19 109 -62 178 -19 30 -44 75 -56 100 -38 84 -134 214 -229 311 -98
99 -162 142 -236 154 -21 4 -67 15 -101 26 -92 27 -239 39 -482 39 -244 0
-384 -12 -406 -33 -8 -8 -45 -18 -82 -22 -37 -3 -86 -15 -108 -26 -58 -27
-246 -105 -275 -114 -71 -22 -164 -113 -283 -280 -47 -66 -102 -141 -122 -167
l-35 -48 -77 0 c-56 0 -96 7 -150 25 -40 14 -106 30 -145 35 -74 9 -98 9 -438
-11 -173 -10 -200 -9 -239 5 -70 26 -109 62 -176 165 -99 151 -133 220 -150
301 -14 71 -18 78 -71 127 -56 52 -122 82 -216 99 -49 8 -48 0 1 -26 64 -32
175 -120 193 -152 17 -31 15 -58 -6 -58 -7 0 -60 25 -117 55 -181 95 -325 128
-454 102 -59 -12 -78 -12 -115 -1 -24 7 -67 16 -95 19 -61 8 -241 -13 -270
-30 -11 -7 -54 -16 -95 -19 -41 -4 -93 -15 -115 -25 -96 -45 -182 -80 -210
-86 -16 -4 -75 -37 -132 -75 -56 -38 -116 -76 -134 -85 l-32 -17 7 28 c4 16
18 51 31 79 22 46 24 66 29 265 3 118 5 243 6 278 0 40 4 61 10 57 6 -3 10
-36 10 -72 0 -125 8 -58 19 167 13 245 15 260 37 260 8 0 14 1 14 3 1 1 5 59
9 130 6 97 12 132 25 146 11 12 20 49 26 103 6 47 17 102 25 123 9 20 21 62
26 93 6 31 17 69 25 84 8 15 19 51 25 80 6 29 29 91 51 138 23 47 51 111 64
143 58 147 216 373 358 513 141 138 263 214 451 282 232 83 189 77 587 74 197
-2 368 -5 380 -8 13 -3 311 -7 663 -9 352 -3 645 -5 650 -5 25 -4 -62 -22
-192 -41 -128 -18 -172 -20 -415 -15 -150 4 -341 9 -424 12 -148 5 -273 -6
-418 -38 l-51 -11 40 -10 c22 -5 85 -20 140 -33 55 -13 159 -31 230 -40 72 -8
159 -19 195 -25 128 -20 463 -22 635 -4 88 9 243 25 345 35 102 11 206 22 231
26 80 11 280 -47 454 -132 126 -61 298 -185 375 -271 124 -139 271 -380 343
-563 38 -95 97 -267 113 -325 7 -27 24 -88 38 -135 32 -105 76 -291 76 -319 0
-12 5 -21 10 -21 6 0 10 8 10 17 0 9 3 13 6 10 4 -4 10 -80 15 -169 7 -160 14
-202 29 -193 12 7 20 -78 20 -217 0 -118 2 -133 25 -179 15 -28 64 -87 113
-137 49 -48 121 -132 162 -187 101 -137 212 -245 251 -245 l30 0 -26 37 c-14
21 -25 42 -25 47 0 17 -75 109 -188 230 -61 66 -124 145 -140 175 -33 63 -67
237 -77 401 -17 250 -49 489 -92 670 -15 62 -21 90 -58 260 -57 264 -85 348
-196 578 -69 142 -70 146 -99 222 -32 84 -113 240 -165 319 -50 75 -150 174
-304 301 -296 242 -367 291 -514 353 -40 16 -92 43 -116 60 -50 34 -207 107
-233 107 -9 0 -45 13 -80 30 -34 16 -73 30 -85 30 -12 0 -24 4 -28 9 -8 13
-186 67 -266 80 -40 7 -208 11 -435 10 -305 -1 -386 -4 -464 -19z m2555 -1208
c21 -42 50 -111 67 -152 16 -41 61 -140 100 -220 68 -140 128 -304 127 -345
l0 -20 -9 20 c-5 11 -32 78 -60 149 -72 184 -205 411 -317 543 -43 51 -44 53
-27 77 13 20 20 24 34 16 25 -14 30 -13 30 6 0 28 18 4 55 -74z m-4659 -251
c-72 -223 -133 -481 -146 -619 -6 -68 -17 -153 -25 -190 -15 -71 -20 -149 -30
-402 -4 -85 -10 -182 -15 -215 -5 -33 -12 -105 -15 -160 -7 -120 -21 -254 -40
-390 l-14 -100 4 135 c2 74 11 185 19 245 8 61 20 234 25 385 6 151 13 316 15
365 3 50 23 185 46 300 90 463 146 690 192 783 41 83 33 15 -16 -137z m-255
-1052 c-1 -156 -6 -290 -11 -298 -15 -27 -22 104 -18 339 3 201 9 262 25 246
3 -3 5 -132 4 -287z m1317 -870 c26 -11 72 -27 102 -35 l55 -14 -110 4 c-105
3 -311 34 -300 44 11 12 133 30 168 26 21 -3 59 -14 85 -25z m3731 -45 c129
-29 181 -55 160 -80 -24 -29 -50 -26 -127 14 -42 21 -107 50 -144 62 -37 13
-65 27 -62 32 3 4 15 6 27 4 12 -3 78 -17 146 -32z m-429 -20 c47 -8 105 -21
130 -27 43 -11 37 -12 -95 -18 -345 -16 -387 -20 -382 -41 4 -13 -2 -20 -21
-24 -115 -26 -201 -62 -275 -115 -83 -60 -90 -67 -217 -212 -151 -173 -179
-209 -205 -265 -13 -28 -36 -63 -52 -76 -26 -23 -28 -30 -33 -128 -5 -96 -7
-107 -34 -138 -28 -34 -28 -35 -21 -129 4 -52 12 -103 19 -113 6 -10 46 -37
89 -59 84 -44 81 -45 91 30 4 24 13 56 21 72 8 15 15 52 15 82 0 36 5 59 15
67 13 11 15 6 16 -36 2 -79 10 -99 45 -102 39 -4 55 15 65 80 5 33 19 64 37
87 35 43 72 114 72 136 0 24 76 176 102 205 33 37 83 70 106 70 10 0 38 -13
60 -30 36 -26 51 -30 106 -30 104 0 167 16 196 49 14 16 50 44 81 64 58 36 62
43 93 149 12 42 31 73 68 113 56 62 68 61 89 -3 6 -20 15 -42 20 -48 5 -6 20
-42 35 -80 20 -55 24 -79 20 -119 -10 -82 10 -190 69 -375 53 -165 85 -268
119 -385 15 -50 43 -194 49 -250 l3 -30 12 27 c6 15 18 62 27 105 14 73 14 85
-4 178 -11 55 -20 85 -20 67 -1 -19 -5 -31 -11 -27 -6 4 -10 56 -10 123 -1
125 -12 201 -53 352 -14 52 -31 135 -38 184 -13 105 -35 160 -86 223 -37 46
-133 123 -152 123 -5 0 3 38 19 85 22 65 25 85 15 85 -24 0 -28 21 -6 27 23 6
28 19 9 26 -7 3 3 3 22 0 57 -9 208 -61 260 -89 54 -29 201 -173 254 -247 74
-104 167 -312 180 -402 4 -27 16 -75 27 -105 41 -116 33 -363 -15 -480 -57
-138 -73 -168 -142 -276 -99 -154 -193 -258 -301 -331 -100 -69 -252 -143
-293 -143 -15 0 -53 -9 -86 -20 -136 -47 -393 -50 -529 -6 -38 13 -92 26 -119
30 -64 10 -336 143 -419 206 -91 69 -148 141 -195 245 -56 125 -81 211 -97
332 -12 94 -12 112 5 192 10 48 25 102 34 119 10 20 16 57 16 104 1 40 8 91
16 113 9 22 19 56 23 75 23 103 32 118 132 231 55 63 103 121 106 129 3 8 13
23 22 33 23 27 -4 41 -40 20 -37 -22 -234 -242 -264 -296 l-25 -42 0 33 c0 18
7 47 17 65 15 30 15 31 -1 18 -9 -8 11 26 44 75 61 90 88 116 77 75 -3 -14 19
1 71 50 140 131 342 246 385 220 22 -14 92 19 99 46 5 17 89 51 170 69 23 5
26 3 21 -15 -5 -19 -2 -20 28 -13 19 4 75 7 126 7 50 0 90 1 88 3 -1 2 -43 12
-91 22 l-89 18 100 1 c55 1 138 -6 185 -15z m-3525 -83 c3 -5 0 -13 -6 -17
-16 -9 -183 -9 -239 1 -40 7 -42 9 -20 16 37 11 258 11 265 0z m4244 -35 c92
-79 173 -206 132 -206 -9 0 -87 78 -119 120 -11 14 -36 43 -55 64 -20 22 -34
43 -31 48 8 12 45 0 73 -26z m-3933 -37 c41 -17 101 -51 133 -74 32 -24 91
-63 131 -86 82 -49 267 -239 315 -324 33 -58 74 -113 126 -172 21 -23 43 -61
49 -85 7 -23 19 -51 28 -62 17 -18 18 -32 12 -308 0 -27 0 -87 2 -135 2 -73
-1 -95 -19 -128 -11 -22 -24 -59 -28 -82 -4 -28 -29 -75 -74 -140 -37 -54 -73
-114 -81 -133 -17 -43 -37 -70 -102 -137 -77 -81 -77 -63 0 30 38 45 75 100
82 122 19 59 38 93 91 164 28 36 51 79 55 100 3 20 13 56 21 81 23 68 25 505
2 540 -9 14 -24 48 -33 76 -16 49 -65 119 -157 227 -22 26 -48 63 -58 82 -18
38 -190 200 -268 253 -47 31 -188 104 -290 150 -28 12 -66 22 -84 22 -40 1
-117 15 -125 23 -18 18 16 27 102 27 84 0 104 -4 170 -31z m-591 2 l30 -7 -33
-8 c-18 -4 -55 -5 -81 -1 -34 5 -68 1 -110 -11 -80 -22 -89 -12 -14 14 59 21
150 26 208 13z m-447 -99 c-44 -20 -182 -170 -204 -222 -8 -19 -23 -53 -34
-75 -50 -110 -70 -164 -76 -210 -11 -93 -25 -128 -61 -160 -28 -24 -36 -39
-40 -78 -7 -63 16 -313 32 -353 7 -17 16 -50 20 -74 4 -24 16 -61 26 -84 10
-23 19 -51 19 -63 0 -26 77 -177 115 -227 14 -18 25 -36 25 -40 0 -23 147
-166 225 -220 137 -94 180 -116 248 -127 34 -6 76 -19 93 -30 30 -18 53 -20
341 -21 223 -1 316 2 338 11 29 12 29 12 10 -8 -17 -20 -17 -21 0 -21 38 0 3
-13 -84 -31 -125 -25 -205 -31 -281 -21 l-65 9 48 3 c26 1 52 4 57 5 6 1 38 3
72 4 39 1 59 4 52 11 -13 13 -89 15 -250 6 -140 -9 -142 -8 -199 18 -42 19
-74 26 -120 26 -56 0 -74 6 -173 56 -95 48 -130 73 -246 177 -74 67 -149 141
-165 164 -51 70 -96 171 -151 333 l-52 155 4 215 c2 168 6 221 18 241 50 88
79 150 86 185 17 93 96 245 168 322 53 58 186 143 221 141 14 0 8 -6 -17 -17z
m1612 -109 c94 -112 145 -183 132 -183 -15 0 -151 124 -208 190 -64 72 -72
101 -13 45 l41 -40 -21 43 c-12 23 -19 42 -17 42 3 0 41 -44 86 -97z m393
-170 c-13 -2 -33 -2 -45 0 -13 2 -3 4 22 4 25 0 35 -2 23 -4z m-2490 -30 c20
-11 1 -21 -53 -27 -45 -5 -63 -12 -75 -29 l-15 -21 0 22 c0 51 89 85 143 55z
m4474 -9 c-3 -3 -12 -4 -19 -1 -8 3 -5 6 6 6 11 1 17 -2 13 -5z m-1037 -54
c-36 -31 -50 -36 -50 -21 0 5 17 18 38 29 51 27 52 26 12 -8z m-1180 5 c0 -8
-2 -15 -4 -15 -2 0 -6 7 -10 15 -3 8 -1 15 4 15 6 0 10 -7 10 -15z m1743 -57
c-22 -24 -55 -63 -72 -87 l-31 -44 0 54 c0 82 32 117 110 118 l34 1 -41 -42z
m1727 -43 c0 -37 -4 -65 -10 -65 -11 0 -14 113 -3 123 12 13 13 7 13 -58z
m-3960 -103 c14 -10 37 -42 52 -72 27 -53 28 -60 29 -235 1 -199 1 -199 -70
-345 -46 -94 -77 -131 -136 -165 -61 -35 -87 -37 -185 -15 -49 11 -107 20
-129 20 -101 0 -224 85 -302 208 -48 75 -157 288 -177 344 -14 40 -10 59 25
106 40 54 96 69 238 64 78 -3 93 -12 71 -43 -50 -72 13 -375 88 -425 30 -19
111 -11 140 15 53 46 60 141 22 291 -24 93 -25 94 -26 45 0 -40 -3 -47 -11
-32 -6 10 -8 36 -5 58 3 21 9 57 12 79 7 42 21 55 94 84 114 45 220 52 270 18z
m-1880 -179 c0 -41 -3 -54 -10 -43 -11 17 -13 61 -4 84 11 28 14 18 14 -41z
m3514 -100 c-3 -28 -10 -57 -15 -64 -17 -26 -30 12 -24 70 7 66 13 77 32 59
10 -11 12 -28 7 -65z m-1191 -164 c-6 -99 -8 -109 -16 -76 -11 46 1 213 14
200 6 -6 7 -56 2 -124z m266 -293 c-9 -8 -10 -5 -5 14 3 14 7 45 8 70 2 39 2
37 5 -14 3 -37 0 -63 -8 -70z m29 -1023 c-10 -2 -28 -2 -40 0 -13 2 -5 4 17 4
22 1 32 -1 23 -4z m-3308 -76 c10 -26 21 -66 25 -89 4 -22 16 -59 26 -82 10
-23 19 -50 19 -62 0 -24 74 -181 98 -207 35 -40 152 -98 215 -108 34 -6 76
-19 95 -31 35 -21 38 -37 4 -19 -12 6 -50 11 -85 11 -60 0 -75 5 -188 62
l-123 63 -42 90 c-52 111 -134 355 -134 399 0 32 1 33 36 27 32 -5 38 -11 54
-54z m3325 -72 c0 -11 -117 -19 -153 -10 -12 3 -20 10 -17 16 9 13 170 7 170
-6z m2018 -634 c6 -6 9 -13 6 -15 -2 -3 -62 -8 -133 -12 -108 -6 -128 -5 -124
7 8 26 69 39 156 35 46 -2 89 -9 95 -15z m175 -19 c4 -36 -11 -42 -39 -16 -14
13 -16 21 -8 36 16 30 43 18 47 -20z m-380 -69 c-10 -2 -28 -2 -40 0 -13 2 -5
4 17 4 22 1 32 -1 23 -4z m110 -10 c-16 -2 -40 -2 -55 0 -16 2 -3 4 27 4 30 0
43 -2 28 -4z m-2358 -163 c10 -7 -8 -9 -60 -9 -56 1 -67 3 -45 9 44 11 88 11
105 0z m60 -144 c0 -3 -4 -8 -10 -11 -5 -3 -10 -1 -10 4 0 6 5 11 10 11 6 0
10 -2 10 -4z m887 -647 c-9 -5 -26 -27 -37 -47 -20 -36 -21 -36 -15 -7 6 30
38 65 59 65 6 0 3 -5 -7 -11z m-334 -856 c-7 -2 -19 -2 -25 0 -7 3 -2 5 12 5
14 0 19 -2 13 -5z"/>
<path d="M8409 7691 c-67 -5 -82 -11 -130 -44 -70 -49 -106 -103 -115 -173 -9
-75 5 -289 22 -329 18 -44 107 -122 154 -135 21 -6 59 -9 86 -8 27 1 68 -2 91
-6 52 -9 73 1 137 68 59 62 84 115 93 196 4 45 9 60 19 56 11 -4 14 7 14 44 0
28 -4 58 -9 68 -5 9 -21 51 -37 92 -36 99 -88 153 -162 169 -29 6 -61 10 -70
9 -9 -1 -51 -4 -93 -7z m241 -240 c0 -147 -36 -273 -99 -340 -38 -41 -55 -36
-59 16 -3 38 0 44 43 79 56 46 83 94 91 168 l7 55 -37 -6 c-39 -6 -61 6 -77
42 -7 14 -8 7 -5 -25 l5 -45 -20 24 c-21 25 -25 71 -9 101 10 19 67 43 81 34
5 -3 9 5 9 17 0 20 3 19 35 -12 34 -33 35 -37 35 -108z"/>
<path d="M8583 7493 c-15 -5 -18 -33 -4 -33 13 0 33 28 24 33 -4 2 -14 2 -20
0z"/>
<path d="M7931 7303 c-6 -21 -11 -44 -11 -51 0 -25 -52 -62 -86 -62 -19 0 -34
-2 -34 -4 0 -20 49 -110 81 -148 21 -26 39 -49 39 -51 0 -3 -27 -3 -60 0 -70
7 -74 0 -29 -52 85 -96 310 -236 354 -219 17 7 35 64 35 117 l0 37 63 0 62 0
-50 28 c-66 37 -111 69 -182 127 -153 128 -178 165 -171 257 2 32 3 58 2 58
-2 0 -8 -17 -13 -37z"/>
<path d="M9040 7045 c0 -5 -2 -49 -3 -96 -3 -117 -8 -121 -111 -114 -53 4
-103 2 -146 -7 l-65 -14 90 -13 c140 -19 209 -17 245 9 27 19 30 27 30 73 0
43 -37 194 -40 162z"/>
<path d="M5120 7461 c0 -27 5 -53 10 -56 6 -4 10 13 10 44 0 27 -4 53 -10 56
-6 4 -10 -13 -10 -44z"/>
<path d="M5775 7433 c-20 -67 -28 -201 -15 -238 9 -26 60 119 60 171 0 55 -11
134 -19 134 -3 0 -15 -30 -26 -67z"/>
<path d="M8280 9125 c-260 -31 -475 -127 -560 -250 -51 -74 -71 -140 -75 -252
-2 -57 -7 -113 -11 -125 -6 -21 -6 -21 23 3 17 14 44 31 62 38 l31 13 -25 30
c-40 48 -32 117 23 185 81 101 108 125 184 163 76 38 114 50 106 33 -2 -5 -10
-20 -17 -35 -13 -25 -12 -30 3 -47 17 -19 17 -20 -26 -30 -101 -25 -178 -86
-178 -140 0 -28 -30 -51 -65 -51 -20 0 -19 -20 1 -49 15 -20 23 -23 66 -19 30
3 57 13 71 25 36 34 99 60 180 77 42 9 98 25 124 35 26 10 74 24 106 31 31 6
55 16 52 21 -6 9 318 16 516 12 83 -2 89 -3 193 -58 59 -31 130 -65 157 -76
44 -17 50 -17 56 -3 4 12 8 11 17 -8 6 -12 19 -24 29 -26 14 -3 12 4 -12 40
-16 24 -60 90 -97 148 -133 204 -267 299 -449 320 -118 13 -353 11 -485 -5z
m450 -123 c70 -21 87 -42 49 -63 -23 -12 -107 -10 -371 9 -113 8 -137 22 -87
48 60 31 82 34 214 29 88 -2 151 -10 195 -23z m233 -42 c48 -32 117 -103 117
-120 0 -13 -10 -13 -78 4 -31 8 -75 18 -97 23 -30 6 -39 13 -37 26 2 9 -2 26
-8 37 -9 17 -7 24 12 40 31 26 37 25 91 -10z m-733 -28 c0 -20 -43 -45 -86
-50 -37 -4 -46 -2 -42 9 8 25 128 63 128 41z"/>
<path d="M4260 8441 c0 -22 20 -36 40 -29 6 2 0 14 -14 27 l-26 24 0 -22z"/>
<path d="M3830 8025 c-13 -14 -19 -25 -13 -25 12 0 48 38 41 45 -2 3 -15 -6
-28 -20z"/>
<path d="M3556 7507 c-3 -14 -9 -32 -12 -41 -5 -12 0 -16 21 -16 25 0 26 2 20
33 -10 44 -21 54 -29 24z"/>
<path d="M3533 7430 c-13 -5 -32 -24 -42 -41 -11 -17 -44 -51 -74 -75 -53 -42
-98 -97 -129 -159 -52 -103 -86 -393 -63 -525 18 -100 59 -249 79 -288 9 -17
16 -38 16 -47 0 -30 19 -14 37 33 13 34 17 70 16 127 -10 393 -7 500 13 553
l20 53 0 -178 c0 -154 3 -189 22 -258 47 -166 63 -133 88 180 8 107 31 221 54
265 24 47 65 82 120 104 121 48 118 46 101 88 -5 13 -12 35 -15 50 l-6 28 -38
-19 c-20 -11 -61 -22 -91 -26 -52 -7 -53 -7 -45 16 8 25 6 107 -2 121 -7 10
-33 9 -61 -2z"/>
<path d="M10102 7371 c-23 -74 -15 -110 55 -276 17 -38 37 -91 47 -116 9 -25
34 -73 56 -106 49 -76 59 -120 60 -248 0 -145 -46 -322 -141 -538 -22 -51 -43
-99 -48 -107 -4 -8 -20 -55 -35 -105 -49 -156 -84 -258 -114 -331 -30 -72 -62
-185 -62 -220 0 -18 51 68 160 271 46 84 85 173 174 389 56 135 144 408 156
483 6 36 13 69 15 73 2 3 5 92 6 196 1 151 -2 202 -15 254 -31 117 -118 251
-239 368 -30 28 -56 52 -59 52 -3 0 -10 -17 -16 -39z m206 -372 c-3 -8 -7 -3
-11 10 -4 17 -3 21 5 13 5 -5 8 -16 6 -23z"/>
<path d="M9917 7012 c-21 -65 -57 -150 -79 -188 -151 -259 -184 -399 -195
-835 -3 -148 -1 -232 6 -265 10 -41 25 -411 31 -739 l1 -80 21 45 c16 36 22
78 29 202 5 87 13 177 19 200 13 59 13 645 -1 724 -12 67 2 165 41 289 10 33
28 105 40 160 33 156 37 168 85 240 25 37 50 86 55 109 16 70 10 256 -9 256
-3 0 -23 -53 -44 -118z"/>
<path d="M3938 6605 c-9 -9 28 -159 50 -200 26 -49 88 -122 96 -114 4 3 -3 26
-14 50 -11 24 -20 51 -20 59 0 15 -85 188 -99 203 -4 4 -10 5 -13 2z"/>
<path d="M3950 6053 c1 -47 71 -213 90 -213 5 0 -2 30 -14 68 -32 94 -76 178
-76 145z"/>
<path d="M3680 5962 c0 -20 71 -166 106 -219 34 -52 161 -183 176 -183 16 0
-45 132 -94 205 -65 96 -188 224 -188 197z"/>
<path d="M7320 5861 l-35 -7 40 -7 c87 -15 222 -25 260 -18 40 7 40 7 -38 24
-78 17 -162 20 -227 8z"/>
<path d="M8320 5392 c-46 -27 -85 -52 -87 -58 -6 -17 190 -1 220 19 47 31 28
87 -30 87 -10 0 -57 -22 -103 -48z"/>
<path d="M8612 4617 c-13 -50 -26 -154 -19 -147 13 13 47 118 47 147 0 48 -16
48 -28 0z"/>
<path d="M7565 4583 c-107 -12 -118 -15 -104 -24 13 -9 76 -6 199 8 49 6 52 7
25 14 -32 7 -72 8 -120 2z"/>
<path d="M6443 4517 c-24 -6 -43 -14 -43 -17 0 -7 49 -21 160 -46 37 -8 139
-16 235 -19 173 -5 230 4 164 23 -19 6 -63 23 -99 38 -61 26 -75 28 -220 30
-87 1 -174 -3 -197 -9z"/>
<path d="M9046 4323 c-16 -43 -39 -107 -53 -143 -36 -96 -38 -104 -24 -96 21
13 62 87 82 146 18 55 36 170 27 170 -2 0 -17 -35 -32 -77z"/>
<path d="M9141 3614 c-11 -14 -30 -51 -42 -82 -19 -51 -23 -87 -31 -342 -8
-259 -11 -289 -30 -325 -18 -34 -21 -65 -27 -212 -6 -157 -8 -174 -28 -200
-12 -15 -31 -47 -42 -70 -11 -23 -52 -91 -92 -150 -61 -90 -114 -148 -317
-348 -134 -132 -265 -253 -291 -269 -25 -16 -95 -62 -156 -101 -86 -57 -330
-185 -352 -185 -9 0 76 100 167 195 52 55 121 139 152 185 65 97 228 256 453
442 161 133 206 179 235 242 31 69 26 82 -18 39 -46 -47 -367 -287 -542 -408
-179 -123 -276 -213 -329 -307 -33 -59 -87 -115 -172 -180 -31 -24 -99 -80
-150 -126 -186 -164 -267 -211 -504 -290 l-180 -60 -175 -8 c-96 -4 -290 -8
-430 -9 -165 -1 -264 -5 -280 -12 -23 -11 -22 -12 20 -13 34 0 41 -3 30 -10
-9 -6 -39 -8 -72 -4 -45 5 -66 1 -103 -15 -53 -23 -146 -28 -192 -10 -15 6
-48 17 -73 25 -81 23 -185 65 -192 77 -4 7 -8 19 -8 27 0 13 12 14 83 7 45 -5
114 -17 152 -28 39 -10 97 -19 130 -18 33 0 56 2 50 4 -5 2 -50 15 -100 30
-49 14 -121 35 -158 46 -75 23 -284 138 -327 181 -58 57 -38 102 24 55 18 -15
36 -23 40 -20 4 4 17 -5 31 -19 16 -17 39 -28 72 -33 26 -4 80 -22 119 -40
123 -58 227 -79 399 -79 146 0 235 9 235 24 0 4 -12 11 -26 14 -14 4 -54 20
-89 37 -34 16 -98 38 -142 49 -43 11 -101 29 -128 39 -44 17 -50 23 -50 48 0
29 -63 161 -111 229 -48 71 -83 151 -90 205 -12 99 -53 257 -54 208 0 -8 -10
-34 -21 -59 -18 -41 -21 -43 -31 -26 -12 21 -13 18 -56 -139 -9 -33 -24 -67
-34 -75 -10 -8 -27 -49 -38 -90 -47 -177 -50 -185 -77 -207 -16 -13 -35 -23
-43 -23 -11 0 -11 -3 -2 -12 20 -20 14 -28 -19 -28 -47 0 -99 56 -99 106 0 72
23 253 32 248 4 -3 8 -57 8 -120 0 -101 2 -116 20 -134 22 -22 65 -27 76 -8 4
6 13 48 19 93 9 56 25 109 53 169 23 48 44 111 48 139 3 29 15 65 25 80 13 17
23 55 28 101 6 50 15 83 30 103 19 26 22 45 26 178 5 169 -4 233 -45 315 l-28
55 -10 -40 c-6 -22 -14 -60 -19 -84 -8 -41 -11 -44 -43 -47 -19 -2 -60 -15
-91 -29 -98 -43 -162 -53 -399 -59 -262 -7 -327 -13 -395 -32 -27 -8 -122 -26
-210 -39 -88 -13 -181 -33 -207 -44 -25 -11 -89 -29 -140 -40 -52 -11 -108
-27 -124 -36 -16 -8 -38 -15 -50 -15 -27 0 -141 -40 -229 -80 -128 -58 -184
-73 -218 -59 -28 12 -31 11 -71 -32 -23 -24 -46 -51 -52 -59 -5 -8 -47 -40
-94 -70 -123 -78 -165 -115 -185 -159 -12 -27 -39 -55 -89 -91 -39 -29 -93
-76 -121 -104 -27 -29 -84 -74 -125 -101 -109 -71 -156 -112 -170 -146 -7 -16
-20 -34 -30 -39 -9 -5 -71 -16 -136 -25 -65 -9 -150 -22 -189 -29 -38 -8 -72
-10 -75 -5 -3 4 -38 5 -78 0 -40 -4 -75 -4 -78 1 -3 4 -18 8 -35 8 -38 0 -208
-28 -234 -39 -11 -5 -33 -14 -48 -20 -15 -6 -25 -15 -22 -21 3 -5 -7 -16 -22
-24 -47 -24 -62 -47 -61 -95 0 -40 -4 -48 -41 -79 l-42 -35 6 -126 c11 -199
10 -201 -51 -221 l-34 -12 0 -227 0 -228 -40 -32 c-35 -28 -40 -37 -38 -67 l2
-34 498 0 498 0 0 39 c0 38 2 41 63 74 34 20 76 38 92 42 17 4 46 13 66 22 34
14 39 13 80 -7 58 -30 97 -75 111 -127 l10 -43 2434 0 c1616 0 2434 3 2434 10
0 6 -51 10 -134 10 -73 0 -162 3 -197 7 -109 11 -37 22 158 22 110 1 184 5
188 11 3 6 15 10 26 10 36 0 144 43 289 115 80 40 179 87 220 106 105 47 144
72 235 154 l30 26 -38 -6 c-45 -7 -47 -16 32 100 150 220 203 301 281 425 119
192 207 325 264 400 27 36 62 94 78 130 57 127 88 186 127 238 22 29 54 83 72
120 39 83 99 237 99 254 0 7 -17 -7 -37 -32 -20 -25 -71 -79 -114 -120 l-77
-75 5 -50 c5 -45 2 -55 -22 -83 -49 -58 -142 -91 -172 -61 -9 9 -30 -4 -82
-51 -39 -35 -71 -67 -71 -71 0 -17 -192 -200 -229 -218 -20 -11 -45 -29 -56
-41 -31 -36 -251 -172 -243 -151 8 23 103 113 138 131 21 11 45 29 53 40 7 10
60 58 118 106 57 47 118 101 134 119 28 31 230 216 417 384 119 107 282 295
323 372 19 37 41 95 48 130 8 35 22 82 32 104 13 30 19 76 23 185 5 152 19
168 22 25 l2 -80 15 35 c9 19 18 77 21 130 3 61 8 88 13 75 5 -12 8 9 8 57 1
92 -8 119 -59 174 -56 61 -69 116 -72 311 -2 90 -4 163 -5 163 -1 0 -11 -12
-22 -26z m50 -552 c34 -54 35 -78 8 -187 l-19 -80 5 68 c5 61 -8 178 -22 201
-13 20 -33 -31 -49 -125 -10 -54 -19 -97 -22 -95 -6 6 28 227 39 254 11 29 23
22 60 -36z m-104 -254 c-3 -8 -6 -5 -6 6 -1 11 2 17 5 13 3 -3 4 -12 1 -19z
m90 -50 c-3 -8 -6 -5 -6 6 -1 11 2 17 5 13 3 -3 4 -12 1 -19z m-110 -105 c-3
-10 -5 -2 -5 17 0 19 2 27 5 18 2 -10 2 -26 0 -35z m-9 -108 c-5 -35 -15 -81
-24 -102 -8 -21 -12 -27 -9 -13 3 14 10 64 17 112 7 48 15 83 18 77 4 -5 3
-38 -2 -74z m-3868 -105 c-20 -13 -130 -13 -130 0 0 6 31 10 73 10 50 0 67 -3
57 -10z m3690 -250 c0 -12 -118 -138 -142 -151 -10 -5 -18 -7 -18 -3 0 6 151
164 157 164 2 0 3 -4 3 -10z m-4682 -726 c31 -21 53 -69 54 -114 0 -46 -5 -56
-34 -63 -13 -2 -31 -8 -40 -12 -11 -4 -18 -3 -18 4 0 6 10 11 23 11 45 1 -10
21 -75 27 -54 5 -73 1 -132 -22 -38 -15 -96 -34 -130 -42 -65 -15 -185 -59
-200 -74 -23 -21 -86 4 -86 35 -1 33 -17 38 -60 16 -67 -34 -37 -6 36 35 44
24 92 40 144 49 57 10 105 28 176 65 78 41 108 51 149 52 45 0 111 17 76 18
-19 1 -3 17 24 24 40 9 71 7 93 -9z m1460 -74 c-2 -10 -17 -16 -45 -18 l-43
-3 17 29 c15 26 19 28 45 18 17 -6 27 -17 26 -26z m-398 -180 c28 -14 50 -28
50 -32 0 -18 -75 -6 -129 22 -52 26 -77 49 -105 98 -5 7 24 -4 63 -25 40 -21
94 -49 121 -63z m2365 29 c-4 -6 -2 -29 5 -52 14 -52 2 -88 -37 -114 -23 -15
-45 -18 -132 -15 -63 2 -108 7 -112 14 -5 7 -18 4 -41 -10 -18 -12 -57 -36
-86 -53 -30 -18 -56 -38 -59 -45 -4 -11 -49 -14 -224 -14 -182 0 -219 -2 -226
-15 -7 -12 -46 -15 -228 -16 -142 -1 -240 2 -277 10 -60 13 -80 27 -54 37 9 3
12 12 9 22 -6 15 -4 15 14 0 16 -15 39 -18 139 -18 65 0 139 5 164 11 25 6
124 12 220 14 136 2 184 6 215 19 21 9 93 28 160 41 146 30 212 49 289 83 53
24 57 27 40 39 -28 20 -2 33 66 31 36 0 71 7 100 20 52 24 64 26 55 11z
m-4419 -443 c19 -19 34 -38 34 -43 0 -12 -38 -30 -125 -58 -38 -13 -92 -32
-120 -43 -27 -11 -75 -26 -105 -32 -64 -15 -168 -56 -191 -76 -33 -30 -90 12
-91 67 -1 43 18 55 110 70 52 8 106 27 171 59 58 28 118 50 150 54 30 4 63 14
75 22 32 22 55 17 92 -20z m1654 -124 c45 -19 163 -109 267 -201 49 -43 78
-61 213 -125 l35 -16 -40 6 c-62 9 -116 37 -186 96 -35 30 -98 76 -139 102
-41 27 -88 59 -103 72 -15 13 -56 37 -90 53 -34 17 -78 44 -97 60 l-35 31 65
-29 c36 -16 85 -38 110 -49z m-1623 16 c-3 -8 -6 -5 -6 6 -1 11 2 17 5 13 3
-3 4 -12 1 -19z m3483 -648 c11 -7 -4 -10 -50 -10 -46 0 -61 3 -50 10 19 13
81 13 100 0z"/>
<path d="M9818 2862 c-72 -15 -103 -32 -59 -32 10 0 38 -7 61 -15 61 -21 190
-34 455 -45 295 -13 421 -27 650 -75 39 -9 97 -15 130 -15 l60 1 -85 40 c-86
42 -101 47 -200 72 -202 52 -254 57 -855 82 -49 2 -110 -3 -157 -13z"/>
<path d="M9434 2774 c-4 -16 -12 -40 -19 -54 -13 -25 -38 -200 -30 -208 2 -2
18 26 35 64 25 55 30 81 31 142 1 79 -6 102 -17 56z"/>
<path d="M8957 2531 c-5 -35 -6 -65 -3 -68 7 -7 18 80 14 108 -2 13 -7 -5 -11
-40z"/>
<path d="M10005 2391 c-28 -6 -26 -7 26 -23 51 -16 74 -20 182 -32 53 -5 56
11 5 24 -24 6 -60 18 -81 26 -39 14 -80 16 -132 5z"/>
<path d="M9866 2200 c-28 -5 -25 -7 40 -35 63 -26 80 -29 192 -31 67 0 124 2
127 5 2 4 -44 19 -103 34 -107 28 -201 38 -256 27z"/>
<path d="M9720 2032 c-33 -7 -31 -8 55 -35 64 -19 110 -27 160 -26 l70 1 -83
28 c-93 32 -150 41 -202 32z"/>
<path d="M9585 1830 c-45 -7 -44 -7 70 -44 82 -27 167 -33 250 -18 39 7 37 8
-75 40 -112 31 -164 36 -245 22z"/>
<path d="M9475 1553 c-29 -5 -28 -5 20 -24 56 -22 183 -39 211 -28 15 5 8 9
-26 18 -25 7 -64 19 -88 27 -43 14 -60 15 -117 7z"/>
<path d="M9340 1351 l-35 -6 60 -17 c117 -34 148 -39 199 -37 85 4 84 11 -10
41 -86 27 -142 32 -214 19z"/>
<path d="M9180 981 c-34 -6 -32 -7 45 -33 75 -25 224 -42 239 -27 9 9 -154 58
-204 62 -25 2 -61 1 -80 -2z"/>
<path d="M9000 860 c0 -4 33 -14 73 -23 148 -36 208 -27 84 11 -64 20 -157 27
-157 12z"/>
<path d="M8861 663 c-7 -3 25 -18 72 -34 64 -21 104 -28 158 -28 39 1 67 5 63
9 -5 5 -47 20 -95 34 -78 24 -164 32 -198 19z"/>
<path d="M8720 429 c30 -12 84 -23 120 -26 l65 -4 -45 22 c-30 14 -71 23 -120
25 l-75 4 55 -21z"/>
<path d="M8505 261 c-13 -12 141 -71 208 -80 68 -9 143 -8 152 1 6 6 -124 56
-161 63 -51 10 -194 21 -199 16z"/>
<path d="M2305 93 c-39 -20 -85 -63 -85 -80 0 -9 16 -13 55 -13 54 0 55 0 55
29 0 16 4 41 10 55 11 30 6 31 -35 9z"/>
</g>
</svg>
